<?xml version="1.0" encoding="utf-8"?>
<!-- Generator: Adobe Illustrator 25.0.1, SVG Export Plug-In . SVG Version: 6.00 Build 0)  -->
<svg version="1.0" id="katman_1" xmlns="http://www.w3.org/2000/svg" xmlns:xlink="http://www.w3.org/1999/xlink" x="0px" y="0px"
	 viewBox="0 0 560 400" style="enable-background:new 0 0 560 400;" xml:space="preserve">
<style type="text/css">
	.st0{fill-rule:evenodd;clip-rule:evenodd;fill:#ED1C24;}
	.st1{fill-rule:evenodd;clip-rule:evenodd;fill:#FFD500;}
</style>
<g transform="matrix(.483079 0 0 .483079 108.492 -20.5971)">
	<path class="st0" d="M355,752.7c-22.9,0-34.6-14.9-34.6-14.9c-18.8-0.8-165.7-0.4-165.7-0.4l-14.3-120.7c0,0-90.5-63.8-97.8-71.1
		C-0.9,348.5,156.1,160.6,355,160.6s355.9,187.8,312.5,384.9c-7.4,7.4-97.8,71.1-97.8,71.1l-14.3,120.7c0,0-146.9-0.4-165.7,0.4
		C389.7,737.8,377.9,752.7,355,752.7L355,752.7z"/>
	<path class="st1" d="M355.2,569.1l-13.9-348.5c-16.7-3.4-59.4,0.7-82.3,17.8l66.6,332.1L234.8,252c-21.8-0.3-65.7,36.6-69,47.5
		l132.6,282.5l-149-258.3c-14.7,5.5-46.8,64.6-41.7,71.4l166,203.2L102.9,424.9c0,0-22.2,33.8-7.7,91.1l96.5,69.7l12.1,95.2H322
		c0,0,19.4,18.3,33.1,18.3c13.7,0,33.1-18.3,33.1-18.3h118.3l12.1-95.2l96.5-69.7c14.5-57.3-7.7-91.1-7.7-91.1L436.5,598.5
		l166-203.2c5.1-6.9-27-66-41.7-71.4l-149,258.3l132.6-282.5c-3.3-10.9-47.2-47.8-69-47.5l-90.9,318.4l66.6-332.1
		c-22.9-17.1-65.6-21.2-82.3-17.8L355.2,569.1z"/>
</g>
</svg>
